# xmcd CD database file
#
# Track frame offsets:
#	150
#	14214
#	29584
#	50326
#	73527
#	87638
#	104422
#	118545
#	130957
#	143716
#	158834
#	175038
#	190298
#
# Disc length: 2863 seconds
#
# Revision: 0
# Processed by: cddbd v1.5.2PL0 Copyright (c) Steve Scherf et al.
# Submitted via: CDex 1.51
#
DISCID=ba0b2d0d
DTITLE=The Gordons - Wasn't Born to Follow
DYEAR=1990
DGENRE=Country
TTITLE0=Honky Tonk Blues
TTITLE1=In Your Eyes
TTITLE2=Holdin' On
TTITLE3=Chimes of Freedom
TTITLE4=Why I'm Walkin'
TTITLE5=The Key's in the Mailbox
TTITLE6=Road of No Return
TTITLE7=Wasn't Born to Follow
TTITLE8=The Minute Your Gone
TTITLE9=Wheels
TTITLE10=Spoon River
TTITLE11=Stone
TTITLE12=Hit the Road Jack
EXTD=YEAR: 1990
EXTT0=
EXTT1=
EXTT2=
EXTT3=
EXTT4=
EXTT5=
EXTT6=
EXTT7=
EXTT8=
EXTT9=
EXTT10=
EXTT11=
EXTT12=
PLAYORDER=
